<mxfile host="app.diagrams.net" modified="2022-09-21T21:07:41.679Z" agent="5.0 (Windows NT 10.0; Win64; x64) AppleWebKit/537.36 (KHTML, like Gecko) Chrome/105.0.0.0 Safari/537.36" etag="1aMrMGHZBbqVc124aSAj" version="20.3.3" type="github">
  <diagram id="ZGP2FUjIpLtLgpHQ3tMv" name="Página-1">
    <mxGraphModel dx="1038" dy="571" grid="1" gridSize="10" guides="1" tooltips="1" connect="1" arrows="1" fold="1" page="1" pageScale="1" pageWidth="827" pageHeight="1169" math="0" shadow="0">
      <root>
        <mxCell id="0" />
        <mxCell id="1" parent="0" />
        <mxCell id="B6YyR5TEjUyum8etC7Q0-1" value="&lt;font color=&quot;#0000cc&quot;&gt;CLIENTES&lt;/font&gt;" style="whiteSpace=wrap;html=1;align=center;strokeColor=#0000CC;" parent="1" vertex="1">
          <mxGeometry x="120" y="240" width="100" height="40" as="geometry" />
        </mxCell>
        <mxCell id="B6YyR5TEjUyum8etC7Q0-2" value="&lt;font color=&quot;#0000cc&quot;&gt;PRODUCTOS&lt;/font&gt;" style="whiteSpace=wrap;html=1;align=center;strokeColor=#0000CC;" parent="1" vertex="1">
          <mxGeometry x="560" y="240" width="100" height="40" as="geometry" />
        </mxCell>
        <mxCell id="B6YyR5TEjUyum8etC7Q0-4" value="&lt;font color=&quot;#ff0000&quot;&gt;COMPRA factura&lt;/font&gt;" style="shape=rhombus;perimeter=rhombusPerimeter;whiteSpace=wrap;html=1;align=center;strokeColor=#FF0000;fontColor=#0000CC;" parent="1" vertex="1">
          <mxGeometry x="340" y="230" width="120" height="60" as="geometry" />
        </mxCell>
        <mxCell id="B6YyR5TEjUyum8etC7Q0-5" value="" style="endArrow=none;html=1;rounded=0;fontColor=#FF0000;strokeColor=#FF0000;" parent="1" edge="1">
          <mxGeometry relative="1" as="geometry">
            <mxPoint x="460" y="259.5" as="sourcePoint" />
            <mxPoint x="560" y="260" as="targetPoint" />
          </mxGeometry>
        </mxCell>
        <mxCell id="B6YyR5TEjUyum8etC7Q0-6" value="" style="endArrow=none;html=1;rounded=0;fontColor=#FF0000;strokeColor=#FF0000;exitX=1;exitY=0.5;exitDx=0;exitDy=0;" parent="1" source="B6YyR5TEjUyum8etC7Q0-1" edge="1">
          <mxGeometry relative="1" as="geometry">
            <mxPoint x="240" y="259.5" as="sourcePoint" />
            <mxPoint x="340" y="260" as="targetPoint" />
          </mxGeometry>
        </mxCell>
        <mxCell id="B6YyR5TEjUyum8etC7Q0-8" value="&lt;font color=&quot;#000000&quot;&gt;CÓDIGO&amp;nbsp;&lt;/font&gt;" style="ellipse;whiteSpace=wrap;html=1;align=center;fontStyle=4;strokeColor=#000000;fontColor=#FF0000;" parent="1" vertex="1">
          <mxGeometry x="550" y="160" width="100" height="40" as="geometry" />
        </mxCell>
        <mxCell id="B6YyR5TEjUyum8etC7Q0-9" value="&lt;font color=&quot;#000000&quot;&gt;CEDULA&lt;/font&gt;" style="ellipse;whiteSpace=wrap;html=1;align=center;fontStyle=4;strokeColor=#000000;fontColor=#FF0000;" parent="1" vertex="1">
          <mxGeometry x="120" y="160" width="100" height="40" as="geometry" />
        </mxCell>
        <mxCell id="B6YyR5TEjUyum8etC7Q0-10" value="&lt;font color=&quot;#000000&quot;&gt;No FACTURA&lt;/font&gt;" style="ellipse;whiteSpace=wrap;html=1;align=center;fontStyle=4;strokeColor=#000000;fontColor=#FF0000;" parent="1" vertex="1">
          <mxGeometry x="220" y="300" width="100" height="40" as="geometry" />
        </mxCell>
        <mxCell id="B6YyR5TEjUyum8etC7Q0-11" value="" style="endArrow=none;html=1;rounded=0;strokeColor=#000000;fontColor=#000000;entryX=0.5;entryY=1;entryDx=0;entryDy=0;exitX=0.5;exitY=0;exitDx=0;exitDy=0;" parent="1" source="B6YyR5TEjUyum8etC7Q0-1" target="B6YyR5TEjUyum8etC7Q0-9" edge="1">
          <mxGeometry relative="1" as="geometry">
            <mxPoint x="80" y="239" as="sourcePoint" />
            <mxPoint x="240" y="239" as="targetPoint" />
          </mxGeometry>
        </mxCell>
        <mxCell id="B6YyR5TEjUyum8etC7Q0-12" value="" style="endArrow=none;html=1;rounded=0;strokeColor=#000000;fontColor=#000000;entryX=0.5;entryY=1;entryDx=0;entryDy=0;" parent="1" target="B6YyR5TEjUyum8etC7Q0-8" edge="1">
          <mxGeometry relative="1" as="geometry">
            <mxPoint x="600" y="240" as="sourcePoint" />
            <mxPoint x="180" y="210" as="targetPoint" />
          </mxGeometry>
        </mxCell>
        <mxCell id="B6YyR5TEjUyum8etC7Q0-13" value="" style="endArrow=none;html=1;rounded=0;strokeColor=#000000;fontColor=#000000;entryX=0.13;entryY=0.603;entryDx=0;entryDy=0;entryPerimeter=0;" parent="1" target="B6YyR5TEjUyum8etC7Q0-4" edge="1">
          <mxGeometry relative="1" as="geometry">
            <mxPoint x="269.5" y="300" as="sourcePoint" />
            <mxPoint x="270" y="250" as="targetPoint" />
          </mxGeometry>
        </mxCell>
        <mxCell id="B6YyR5TEjUyum8etC7Q0-21" value="&lt;font color=&quot;#0000cc&quot;&gt;DESCRIPCION&lt;/font&gt;" style="ellipse;whiteSpace=wrap;html=1;align=center;strokeColor=#0000CC;fontColor=#000000;" parent="1" vertex="1">
          <mxGeometry x="690" y="160" width="100" height="40" as="geometry" />
        </mxCell>
        <mxCell id="B6YyR5TEjUyum8etC7Q0-22" value="&lt;font color=&quot;#0000cc&quot;&gt;UNIDAD VENTA&lt;/font&gt;" style="ellipse;whiteSpace=wrap;html=1;align=center;strokeColor=#0000CC;fontColor=#000000;" parent="1" vertex="1">
          <mxGeometry x="700" y="240" width="100" height="40" as="geometry" />
        </mxCell>
        <mxCell id="B6YyR5TEjUyum8etC7Q0-23" value="&lt;font color=&quot;#0000cc&quot;&gt;PRECIO UNITARIO&lt;/font&gt;" style="ellipse;whiteSpace=wrap;html=1;align=center;strokeColor=#0000CC;fontColor=#000000;" parent="1" vertex="1">
          <mxGeometry x="640" y="320" width="100" height="40" as="geometry" />
        </mxCell>
        <mxCell id="B6YyR5TEjUyum8etC7Q0-24" value="&lt;font color=&quot;#0000cc&quot;&gt;NOMBRE&lt;/font&gt;" style="ellipse;whiteSpace=wrap;html=1;align=center;strokeColor=#0000CC;fontColor=#000000;" parent="1" vertex="1">
          <mxGeometry y="160" width="100" height="40" as="geometry" />
        </mxCell>
        <mxCell id="B6YyR5TEjUyum8etC7Q0-25" value="&lt;font color=&quot;#0000cc&quot;&gt;APELLIDOS&lt;/font&gt;" style="ellipse;whiteSpace=wrap;html=1;align=center;strokeColor=#0000CC;fontColor=#000000;" parent="1" vertex="1">
          <mxGeometry y="240" width="100" height="40" as="geometry" />
        </mxCell>
        <mxCell id="B6YyR5TEjUyum8etC7Q0-26" value="&lt;font color=&quot;#0000cc&quot;&gt;CORREO&lt;/font&gt;" style="ellipse;whiteSpace=wrap;html=1;align=center;strokeColor=#0000CC;fontColor=#000000;" parent="1" vertex="1">
          <mxGeometry y="320" width="100" height="40" as="geometry" />
        </mxCell>
        <mxCell id="B6YyR5TEjUyum8etC7Q0-27" value="&lt;font color=&quot;#0000cc&quot;&gt;FECHA&lt;/font&gt;" style="ellipse;whiteSpace=wrap;html=1;align=center;strokeColor=#0000CC;fontColor=#000000;" parent="1" vertex="1">
          <mxGeometry x="460" y="360" width="100" height="40" as="geometry" />
        </mxCell>
        <mxCell id="B6YyR5TEjUyum8etC7Q0-28" value="&lt;font color=&quot;#0000cc&quot;&gt;PAGO&lt;/font&gt;" style="ellipse;whiteSpace=wrap;html=1;align=center;strokeColor=#0000CC;fontColor=#000000;" parent="1" vertex="1">
          <mxGeometry x="470" y="290" width="100" height="40" as="geometry" />
        </mxCell>
        <mxCell id="90K5T_Uqs3qQtLx9syVJ-1" value="&lt;font color=&quot;#0000cc&quot;&gt;No unidades&lt;/font&gt;" style="ellipse;whiteSpace=wrap;html=1;align=center;strokeColor=#0000CC;fontColor=#000000;" vertex="1" parent="1">
          <mxGeometry x="280" y="360" width="100" height="40" as="geometry" />
        </mxCell>
      </root>
    </mxGraphModel>
  </diagram>
</mxfile>
